<?xml version="1.0" encoding="UTF-8" standalone="no"?>
<svg
   id="Layer_1"
   data-name="Layer 1"
   viewBox="0 0 122.88 122.89"
   version="1.1"
   sodipodi:docname="date.svg"
   inkscape:version="1.2.2 (732a01da63, 2022-12-09)"
   xmlns:inkscape="http://www.inkscape.org/namespaces/inkscape"
   xmlns:sodipodi="http://sodipodi.sourceforge.net/DTD/sodipodi-0.dtd"
   xmlns="http://www.w3.org/2000/svg"
   xmlns:svg="http://www.w3.org/2000/svg">
  <defs
     id="defs9" />
  <sodipodi:namedview
     id="namedview7"
     pagecolor="#ffffff"
     bordercolor="#111111"
     borderopacity="1"
     inkscape:showpageshadow="0"
     inkscape:pageopacity="0"
     inkscape:pagecheckerboard="1"
     inkscape:deskcolor="#d1d1d1"
     showgrid="false"
     inkscape:zoom="6.9574416"
     inkscape:cx="50.737041"
     inkscape:cy="61.373134"
     inkscape:window-width="1920"
     inkscape:window-height="1009"
     inkscape:window-x="-8"
     inkscape:window-y="-8"
     inkscape:window-maximized="1"
     inkscape:current-layer="Layer_1" />
  <title
     id="title2">date</title>
  <path
     d="M81.61,4.73C81.61,2.12,84.19,0,87.38,0s5.77,2.12,5.77,4.73V25.45c0,2.61-2.58,4.73-5.77,4.73s-5.77-2.12-5.77-4.73V4.73ZM66.11,105.66c-.8,0-.8-10.1,0-10.1H81.9c.8,0,.8,10.1,0,10.1ZM15.85,68.94c-.8,0-.8-10.1,0-10.1H31.64c.8,0,.8,10.1,0,10.1Zm25.13,0c-.8,0-.8-10.1,0-10.1H56.77c.8,0,.8,10.1,0,10.1Zm25.13,0c-.8,0-.8-10.1,0-10.1H81.9c.8,0,.8,10.1,0,10.1Zm25.14-10.1H107c.8,0,.8,10.1,0,10.1H91.25c-.8,0-.8-10.1,0-10.1ZM15.85,87.3c-.8,0-.8-10.1,0-10.1H31.64c.8,0,.8,10.1,0,10.1ZM41,87.3c-.8,0-.8-10.1,0-10.1H56.77c.8,0,.8,10.1,0,10.1Zm25.13,0c-.8,0-.8-10.1,0-10.1H81.9c.8,0,.8,10.1,0,10.1Zm25.14,0c-.8,0-.8-10.1,0-10.1H107c.8,0,.8,10.1,0,10.1Zm-75.4,18.36c-.8,0-.8-10.1,0-10.1H31.64c.8,0,.8,10.1,0,10.1Zm25.13,0c-.8,0-.8-10.1,0-10.1H56.77c.8,0,.8,10.1,0,10.1ZM29.61,4.73C29.61,2.12,32.19,0,35.38,0s5.77,2.12,5.77,4.73V25.45c0,2.61-2.58,4.73-5.77,4.73s-5.77-2.12-5.77-4.73V4.73ZM6.4,43.47H116.47v-22a3,3,0,0,0-.86-2.07,2.92,2.92,0,0,0-2.07-.86H103a3.2,3.2,0,0,1,0-6.4h10.55a9.36,9.36,0,0,1,9.33,9.33v92.09a9.36,9.36,0,0,1-9.33,9.33H9.33A9.36,9.36,0,0,1,0,113.55V21.47a9.36,9.36,0,0,1,9.33-9.33H20.6a3.2,3.2,0,1,1,0,6.4H9.33a3,3,0,0,0-2.07.86,2.92,2.92,0,0,0-.86,2.07v22Zm110.08,6.41H6.4v63.67a3,3,0,0,0,.86,2.07,2.92,2.92,0,0,0,2.07.86H113.55a3,3,0,0,0,2.07-.86,2.92,2.92,0,0,0,.86-2.07V49.88ZM50.43,18.54a3.2,3.2,0,0,1,0-6.4H71.92a3.2,3.2,0,1,1,0,6.4Z"
     id="path4"
     style="fill:#ffffff;fill-opacity:1" />
</svg>
